<svg width="1560" height="670" viewBox="0 0 1560 670" fill="none" xmlns="http://www.w3.org/2000/svg">
<path fill-rule="evenodd" clip-rule="evenodd" d="M200.971 18.5377C200.971 116.983 281.888 196.785 381.706 196.785C410.237 196.785 405.63 199.989 381.511 199.989C281.693 199.989 200.971 278.411 200.971 376.853C200.971 413.692 195.609 407.049 195.609 376.415C195.609 277.97 117.561 198.609 17.7432 198.609C-3.89329 198.609 -7.85281 195.218 17.7432 195.218C117.561 195.218 195.736 116.983 195.736 18.5377C195.736 -3.93456 200.971 -8.32654 200.971 18.5377Z" fill="url(#paint0_linear_3273_679)"/>
<path fill-rule="evenodd" clip-rule="evenodd" d="M795.32 584.87C806.413 596.298 894.668 707.06 1059.1 657.146C1100.27 644.648 1127 618.522 1137.49 616.321C1139.99 635.897 1132.19 659.477 1154.55 662.746C1167.63 664.66 1209.76 663.534 1220.98 661.153C1228.95 643.218 1224.25 542.093 1224.3 512.551C1224.4 459.463 1227.46 421.11 1210.48 371.19C1171.77 257.348 1033.85 184.18 899.453 231.003C860.202 244.676 821.384 273.661 803.948 295.179C797.639 302.968 793.32 307.085 786.869 316.47C769.52 341.702 756.447 368.031 750.103 399.139C738.965 453.774 753.905 542.2 795.32 584.87ZM963.707 283.493C934.03 286.532 893.621 301.748 874.003 319.583L853.047 339.535C755.843 457.68 853.001 620.66 1006.02 603.557C1091.57 593.994 1163.83 518.096 1151.92 424.38C1141.57 342.861 1061.86 273.448 963.707 283.493Z" fill="#234F94"/>
<path fill-rule="evenodd" clip-rule="evenodd" d="M658.678 585.269C654.353 574.687 617.943 536.415 616.597 535.657C593.697 522.801 575.602 545.297 571.197 548.839C565.996 553.018 558.727 557.412 552.211 560.774C538.084 568.059 521.318 574.673 504.003 577.468C428.314 589.694 358.108 537.084 347.746 480.572C404.941 475.691 481.88 479.334 541.075 479.399C687.735 479.559 616.919 480.03 667.761 460.757C680.082 456.083 693.428 452.372 707.269 451.167C711.539 384.579 693.422 341.263 659.421 299.076C628.079 260.182 583.36 232.536 531.187 221.371C458.554 205.823 378.416 227.522 328.598 269.206L302.81 294.637C287.545 315.238 275.533 327.59 263.386 357.289C180.638 559.613 411.773 748.981 603.796 632.802C629.692 617.135 641.958 606.086 658.678 585.269ZM349.319 395.928L607.969 395.653C595.453 347.134 543.171 303.21 478.172 303.273C415.166 303.335 361.281 347.634 349.319 395.928Z" fill="#234F94"/>
<path fill-rule="evenodd" clip-rule="evenodd" d="M965.451 296.477C938.363 299.27 901.476 313.252 883.57 329.641L864.442 347.976C775.713 456.543 864.398 606.312 1004.07 590.598C1082.17 581.808 1148.12 512.063 1137.26 425.945C1127.81 351.032 1055.05 287.246 965.451 296.477Z" fill="#E6E6E6"/>
<path fill-rule="evenodd" clip-rule="evenodd" d="M1382.68 282.021L1381.43 236.05C1363.31 228.308 1309.95 228.723 1292.47 235.786C1284.73 263.382 1290.03 408.832 1289.92 449.867C1289.83 485.918 1284.57 642.682 1294.9 661.207C1310.52 664.906 1335.35 663.407 1353.68 663.529C1383.57 663.727 1383.64 660.999 1383.44 632.936C1383.16 594.548 1383.43 555.965 1383.61 517.569C1383.77 483.926 1380.36 441.652 1391.06 410.512C1413.93 343.986 1466.12 320.154 1534.61 316.393C1559.97 314.998 1559.72 307.713 1559.44 284.447C1559.3 272.752 1562.09 238.789 1556.4 230.831C1544.61 214.347 1474.21 230.239 1455.67 236.535C1401.84 254.817 1397.05 277.049 1382.68 282.021Z" fill="#234F94"/>
<path fill-rule="evenodd" clip-rule="evenodd" d="M965.451 296.474C938.362 299.266 901.479 313.251 883.57 329.637L864.441 347.972C775.713 456.54 864.401 606.308 1004.07 590.591C1082.16 581.804 1148.12 512.057 1137.26 425.941C1127.81 351.028 1055.05 287.242 965.451 296.474Z" fill="url(#paint1_linear_3273_679)"/>
<defs>
<linearGradient id="paint0_linear_3273_679" x1="196.024" y1="393.772" x2="202.072" y2="40.2393" gradientUnits="userSpaceOnUse">
<stop offset="0.25" stop-color="#9676F1"/>
<stop offset="0.91" stop-color="#5A5587" stop-opacity="0.85"/>
</linearGradient>
<linearGradient id="paint1_linear_3273_679" x1="1138" y1="444" x2="829" y2="444" gradientUnits="userSpaceOnUse">
<stop stop-color="#9676F1"/>
<stop offset="1" stop-color="#5A5587"/>
</linearGradient>
</defs>
</svg>
